<svg xmlns="http://www.w3.org/2000/svg" viewBox="0 0 1200 800" preserveAspectRatio="xMidYMid slice"><defs><filter id="m9f"><feTurbulence type="fractalNoise" baseFrequency="0.012 0.04" numOctaves="3" seed="9"></feTurbulence><feColorMatrix values="0 0 0 0 1 0 0 0 0 1 0 0 0 0 1 0 0 0 1.5 -0.2"></feColorMatrix><feComposite in2="SourceGraphic" operator="in"></feComposite></filter><filter id="m9g"><feTurbulence type="fractalNoise" baseFrequency="0.6" numOctaves="2" seed="16"></feTurbulence><feColorMatrix values="0 0 0 0 0 0 0 0 0 0 0 0 0 0 0 0 0 0 0.08 0"></feColorMatrix></filter><linearGradient id="m9bg" x1="0" y1="0" x2="1" y2="1"><stop offset="0%" stop-color="#e8dcc4"></stop><stop offset="50%" stop-color="#d4c5a4"></stop><stop offset="100%" stop-color="#e8dcc4"></stop></linearGradient><radialGradient id="m9gl" cx="30%" cy="20%" r="80%"><stop offset="0%" stop-color="rgba(255,255,255,0.18)"></stop><stop offset="60%" stop-color="rgba(255,255,255,0)"></stop></radialGradient></defs><rect width="1200" height="800" fill="url(#m9bg)"></rect><g stroke="#8a7050" fill="none" opacity="0.55" stroke-linecap="round" filter="url(#m9f)"><path d="M -50 160 Q 360 40, 660 280 T 1250 360" stroke-width="2"></path><path d="M -50 560 Q 300 440.00000000000006, 600 624 T 1250 680" stroke-width="2.5"></path><path d="M 120 -30 Q 480 320, 840 480 T 1140 830" stroke-width="1"></path></g><g stroke="#a8916b" fill="none" opacity="0.35" stroke-linecap="round"><path d="M -50 320 Q 360 256, 720 400 T 1250 440.00000000000006" stroke-width="0.8"></path><path d="M -50 680 Q 480 624, 840 736 T 1250 760" stroke-width="0.6"></path><path d="M 360 -30 Q 420 240, 600 440.00000000000006 T 720 830" stroke-width="0.5"></path></g><rect width="1200" height="800" filter="url(#m9g)" opacity="0.6"></rect><rect width="1200" height="800" fill="url(#m9gl)"></rect></svg>